# Blender v3.0.0 OBJ File: ''
# www.blender.org
mtllib TankShell.mtl
o TankShell
v 3.000000 3.258819 -9.965926
v 3.000000 3.000000 -9.000000
v 3.000000 3.000000 -10.000000
v 3.000000 4.000000 -9.000000
v 3.000000 3.500000 -9.866025
v 3.000000 3.707107 -9.707107
v 3.000000 3.866024 -9.500000
v 3.000000 3.965925 -9.258819
v -3.000000 3.866025 -9.500000
v -3.000000 3.707108 -9.707107
v -3.000000 3.000000 -10.000000
v -3.000000 3.258820 -9.965926
v -3.000000 4.000000 -9.000000
v -3.000000 3.965926 -9.258819
v -3.000000 3.000000 -9.000000
v -3.000000 3.500000 -9.866025
v 2.999999 -4.000000 -9.000000
v -3.000001 -3.965925 -9.258819
v 2.999999 -3.965926 -9.258819
v -3.000001 -3.866024 -9.500000
v 2.999999 -3.866025 -9.500000
v -3.000001 -3.707107 -9.707107
v 2.999999 -3.707108 -9.707107
v 2.999999 -3.500000 -9.866025
v -3.000001 -4.000000 -9.000000
v 2.999999 -3.258820 -9.965926
v -3.000001 -3.500000 -9.866025
v -3.000001 -3.258819 -9.965926
v -3.000001 -3.000000 -9.000000
v 2.999999 -3.000000 -9.000000
v 2.999999 -3.000000 -10.000000
v -3.000001 -3.000000 -10.000000
v 3.000000 3.000000 2.000000
v -2.999999 3.500000 2.000000
v -3.000000 3.000000 2.000000
v 3.000001 3.500000 2.000000
v -2.999999 4.000000 1.000000
v -3.000000 3.000000 1.000000
v 3.000000 3.000000 1.000000
v 3.000001 4.000000 1.000000
v 3.000000 -3.500000 2.000000
v -3.000000 -3.000000 2.000000
v -3.000000 -3.500000 2.000000
v 3.000000 -3.000000 2.000000
v 3.000000 -3.000000 1.000000
v -3.000000 -3.000000 1.000000
v -3.000001 -4.000000 1.000000
v 2.999999 -4.000000 1.000000
v 3.000001 3.000000 3.000000
v -2.999999 3.000000 3.000000
v 3.000000 -3.000000 3.000000
v -3.000000 -3.000000 3.000000
v 3.000000 2.000000 4.000000
v -3.000000 2.500000 4.000000
v -3.000000 2.000000 4.000000
v 3.000000 2.500000 4.000000
v -3.000000 2.000000 3.000000
v 3.000000 2.000000 3.000000
v 3.000000 -2.500000 4.000000
v -3.000000 -2.000000 4.000000
v -3.000000 -2.500000 4.000000
v 3.000000 -2.000000 4.000000
v 3.000000 -2.000000 3.000000
v -3.000000 -2.000000 3.000000
v 3.000000 2.000000 5.000000
v -3.000000 2.000000 5.000000
v 3.000000 -2.000000 5.000000
v -3.000000 -2.000000 5.000000
v 3.000000 1.000000 6.000000
v -3.000000 1.500000 6.000000
v -3.000000 1.000000 6.000000
v 3.000000 1.500000 6.000000
v -3.000000 1.000000 5.000000
v 3.000000 1.000000 5.000000
v 3.000000 -1.500000 6.000000
v -3.000000 -0.999999 6.000000
v -3.000000 -1.500000 6.000000
v 3.000000 -1.000000 6.000000
v 3.000000 -1.000000 5.000000
v -3.000000 -0.999999 5.000000
v 3.000000 -0.000000 8.000000
v -3.000000 0.500001 8.000000
v -3.000000 0.000001 8.000000
v 3.000000 0.500000 8.000000
v -3.000000 1.000000 7.000000
v -3.000000 0.000001 7.000000
v 3.000000 -0.000000 7.000000
v 3.000000 1.000000 7.000000
v 3.000000 -0.500000 8.000000
v -3.000000 -0.499999 8.000000
v -3.000000 -0.999999 7.000000
v 3.000000 -1.000000 7.000000
v 3.000000 -0.000000 9.000000
v -3.000000 0.000001 9.000000
v 3.000000 -0.500000 8.000000
v -3.000000 -0.500000 8.000000
v 3.000000 4.000000 -8.000000
v -3.000001 -4.000000 -8.000000
v -3.000000 4.000000 -8.000000
v 2.999999 -4.000000 -8.000000
v -3.000000 4.000000 -7.000000
v 3.000000 4.000000 -7.000000
v 2.999999 -4.000000 -7.000000
v -3.000001 -4.000000 -7.000000
v 3.000000 4.000000 -6.000000
v -3.000001 -4.000000 -6.000000
v -3.000000 4.000000 -6.000000
v 2.999999 -4.000000 -6.000000
v -3.000000 4.000000 -5.000000
v 3.000000 4.000000 -5.000000
v 2.999999 -4.000000 -5.000000
v -3.000001 -4.000000 -5.000000
v 3.000000 4.000000 -4.000000
v -3.000001 -4.000000 -4.000000
v -3.000000 4.000000 -4.000000
v 2.999999 -4.000000 -4.000000
v -3.000000 -1.000000 5.000000
v 3.000000 -1.000000 5.000000
v 3.000000 -1.000000 6.000000
v -3.000000 -1.000000 6.000000
v 3.000000 -1.500000 6.000000
v -3.000000 -1.500000 6.000000
v 3.000000 -1.000000 7.000000
v -3.000000 -1.000000 7.000000
vt 18.343540 -9.495314
vt -19.685040 -19.685040
vt 19.685040 -19.685040
vt -19.685040 19.685040
vt 14.410450 -0.000001
vt 8.153811 8.153810
vt 0.000001 14.410450
vt -9.495313 18.343540
vt -19.685040 19.685040
vt 0.000001 14.410450
vt -9.495313 18.343540
vt -19.685040 19.685040
vt 0.000001 14.410450
vt -9.495313 18.343540
vt -19.685040 19.685040
vt 0.000001 14.410450
vt -9.495313 18.343540
vt -19.685040 19.685040
vt 0.000001 14.410450
vt -9.495313 18.343540
vt -19.685040 19.685040
vt 0.000001 14.410450
vt -9.495313 18.343540
vt -19.685040 19.685040
vt 0.000001 14.410450
vt -9.495313 18.343540
vt -19.685040 19.685040
vt 0.000001 14.410450
vt -9.495313 18.343540
vt -19.685040 19.685040
vt 0.000001 14.410450
vt -9.495313 18.343540
vt -9.495313 18.343540
vt -19.685040 19.685040
vt -19.685040 19.685040
vt -9.495313 18.343540
vt 0.000001 14.410450
vt -9.495313 18.343540
vt -19.685040 19.685040
vt 0.000001 14.410450
vt -9.495313 18.343540
vt -19.685040 19.685040
vt 0.000001 14.410450
vt -9.495313 18.343540
vt -19.685040 19.685040
vt -19.685040 19.685040
vt 0.000001 14.410450
vt 0.000000 0.000000
vt 0.000000 0.000000
vt 0.000000 0.000000
vt 0.000000 0.000000
vt 0.000000 0.000000
vt 0.000000 0.000000
vt 0.000000 0.000000
vt 0.000000 0.000000
vt 0.000000 0.000000
vt 0.000000 0.000000
vt 0.000000 0.000000
vt 0.000000 0.000000
vt 0.000000 0.000000
vt 0.000000 0.000000
vt 0.000000 0.000000
vt 0.000000 0.000000
vt -19.685040 19.685040
vt 18.343540 9.495314
vt 19.685040 19.685040
vt -19.685040 19.685040
vt 18.343540 9.495314
vt 19.685040 19.685040
vt -9.495314 -18.343540
vt -19.685040 19.685040
vt -19.685040 -19.685040
vt 0.000000 -14.410450
vt 8.153811 -8.153811
vt 14.410450 0.000000
vt 18.343540 9.495314
vt 19.685040 19.685040
vt 0.000000 0.000000
vt 0.000000 0.000000
vt 0.000000 0.000000
vt 0.000000 0.000000
vt 0.000000 0.000000
vt 0.000000 0.000000
vt 0.000000 0.000000
vt 0.000000 0.000000
vt -19.685040 -19.685040
vt 19.685040 19.685040
vt -19.685040 0.000003
vt -19.685040 -19.685040
vt 19.685040 19.685040
vt -19.685040 0.000003
vt -19.685040 -19.685040
vt 19.685040 -19.685040
vt -19.685040 0.000003
vt 0.000000 0.000000
vt 0.000000 0.000000
vt 0.000000 0.000000
vt 0.000000 0.000000
vt 0.000000 0.000000
vt 0.000000 0.000000
vt 0.000000 0.000000
vt 0.000000 0.000000
vt -19.685040 0.000003
vt 19.685040 19.685040
vt -19.685040 19.685040
vt -19.685040 0.000003
vt 19.685040 19.685040
vt -19.685040 19.685040
vt 19.685040 19.685040
vt -19.685040 0.000003
vt 19.685040 -19.685040
vt -19.685040 19.685040
vt 0.000000 0.000000
vt 0.000000 0.000000
vt 19.685040 0.000003
vt -19.685040 -19.685040
vt 19.685040 -19.685040
vt -19.685040 19.685040
vt 19.685040 0.000001
vt 19.685040 19.685040
vt 19.685040 0.000001
vt 19.685040 19.685040
vt -19.685040 19.685040
vt 19.685040 0.000001
vt 19.685040 19.685040
vt -19.685040 19.685040
vt 19.685040 0.000001
vt 19.685040 0.000001
vt 19.685040 19.685040
vt 19.685040 0.000001
vt 19.685040 19.685040
vt 0.000000 0.000000
vt 0.000000 0.000000
vt 0.000000 0.000000
vt 0.000000 0.000000
vt 0.000000 0.000000
vt 0.000000 0.000000
vt 19.685040 19.685040
vt -19.685040 0.000003
vt -19.685040 -19.685040
vt 19.685040 19.685040
vt -19.685040 0.000003
vt -19.685040 -19.685040
vt 19.685040 -19.685040
vt -19.685040 0.000003
vt 0.000000 0.000000
vt 0.000000 0.000000
vt 0.000000 0.000000
vt 0.000000 0.000000
vt 0.000000 0.000000
vt 0.000000 0.000000
vt 0.000000 0.000000
vt 0.000000 0.000000
vt -19.685040 0.000003
vt 19.685040 19.685040
vt -19.685040 0.000003
vt 19.685040 19.685040
vt -19.685040 19.685040
vt 19.685040 19.685040
vt -19.685040 0.000003
vt 19.685040 -19.685040
vt -19.685040 19.685040
vt 0.000000 0.000000
vt 0.000000 0.000000
vt 19.685040 0.000003
vt -19.685040 -19.685040
vt 19.685040 -19.685040
vt -19.685040 19.685040
vt 19.685040 0.000001
vt 19.685040 19.685040
vt 19.685040 0.000001
vt 19.685040 19.685040
vt -19.685040 19.685040
vt 19.685040 0.000001
vt 19.685040 19.685040
vt -19.685040 19.685040
vt 19.685040 0.000001
vt 19.685040 0.000001
vt 19.685040 19.685040
vt 19.685040 0.000001
vt 19.685040 19.685040
vt 0.000000 0.000000
vt 0.000000 0.000000
vt 0.000000 0.000000
vt 0.000000 0.000000
vt 0.000000 0.000000
vt 0.000000 0.000000
vt 19.685040 19.685040
vt -19.685040 0.000003
vt -19.685040 -19.685040
vt 19.685040 19.685040
vt -19.685040 0.000003
vt -19.685040 -19.685040
vt 19.685040 -19.685040
vt -19.685040 0.000003
vt 0.000000 0.000000
vt 0.000000 0.000000
vt 0.000000 0.000000
vt 0.000000 0.000000
vt 0.000000 0.000000
vt 0.000000 0.000000
vt 0.000000 0.000000
vt 0.000000 0.000000
vt -19.685040 0.000003
vt 19.685040 19.685040
vt -19.685040 0.000003
vt 19.685040 19.685040
vt -19.685040 19.685040
vt 19.685040 19.685040
vt -19.685040 0.000003
vt 19.685040 -19.685040
vt -19.685040 19.685040
vt 0.000000 0.000000
vt 0.000000 0.000000
vt 0.000000 0.000000
vt 0.000000 0.000000
vt 0.000000 0.000000
vt 0.000000 0.000000
vt 0.000000 0.000000
vt 0.000000 0.000000
vt -19.685040 -19.685040
vt 19.685040 19.685040
vt -19.685040 0.000003
vt -19.685040 -19.685040
vt 19.685040 19.685040
vt -19.685040 0.000003
vt -19.685040 -19.685040
vt 19.685040 -19.685040
vt -19.685040 0.000003
vt 0.000000 0.000000
vt 0.000000 0.000000
vt 0.000000 0.000000
vt 0.000000 0.000000
vt -19.685040 0.000003
vt -19.685040 19.685040
vt -19.685040 0.000003
vt 19.685040 19.685040
vt -19.685040 19.685040
vt 19.685040 19.685040
vt -19.685040 0.000003
vt 19.685040 -19.685040
vt -19.685040 19.685040
vt 0.000000 0.000000
vt 0.000000 0.000000
vt 19.685040 0.000003
vt -19.685040 -19.685040
vt 19.685040 -19.685040
vt -19.685040 19.685040
vt 19.685040 0.000001
vt 19.685040 19.685040
vt 19.685040 0.000001
vt -19.685040 19.685040
vt 19.685040 0.000001
vt 19.685040 19.685040
vt -19.685040 19.685040
vt 19.685040 0.000001
vt 19.685040 0.000001
vt 19.685040 19.685040
vt 19.685040 19.685040
vt 19.685040 0.000001
vt 19.685040 19.685040
vt -19.685040 -19.685040
vt 19.685040 19.685040
vt -19.685040 19.685040
vt -19.685040 -19.685040
vt 19.685040 19.685040
vt -19.685040 19.685040
vt -19.685040 -19.685040
vt 19.685040 19.685040
vt -19.685040 19.685040
vt 0.000000 0.000000
vt 0.000000 0.000000
vt 0.000000 0.000000
vt 0.000000 0.000000
vt 0.000000 0.000000
vt 0.000000 0.000000
vt 0.000000 0.000000
vt -19.685040 -19.685040
vt 19.685040 -19.685040
vt -19.685040 -19.685040
vt 19.685040 19.685040
vt -19.685040 19.685040
vt -19.685040 -19.685040
vt 19.685040 19.685040
vt -19.685040 19.685040
vt -19.685040 -19.685040
vt 19.685040 19.685040
vt -19.685040 19.685040
vt 0.000000 0.000000
vt 0.000000 0.000000
vt 0.000000 0.000000
vt 0.000000 0.000000
vt 0.000000 0.000000
vt 0.000000 0.000000
vt 0.000000 0.000000
vt -19.685040 -19.685040
vt 19.685040 -19.685040
vt -19.685040 -19.685040
vt 19.685040 19.685040
vt -19.685040 19.685040
vt -19.685040 -19.685040
vt 19.685040 19.685040
vt -19.685040 19.685040
vt -19.685040 -19.685040
vt 19.685040 19.685040
vt -19.685040 19.685040
vt 0.000000 0.000000
vt 0.000000 0.000000
vt 0.000000 0.000000
vt -19.685040 -19.685040
vt 19.685040 -19.685040
vt -19.685040 -19.685040
vt -19.685040 -19.685040
vt 19.685040 19.685040
vt -19.685040 -19.685040
vt 19.685040 19.685040
vt 0.000000 0.000000
vt -19.685040 -19.685040
vt 19.685040 -19.685040
vt -19.685040 -19.685040
vt -19.685040 19.685040
vt -19.685040 -19.685040
vt 19.685040 19.685040
vt -19.685040 19.685040
vt -19.685040 -19.685040
vt 19.685040 19.685040
vt -19.685040 19.685040
vt -19.685040 -19.685040
vt 19.685040 -19.685040
vt -19.685040 -19.685040
vt -19.685040 19.685040
vt -19.685040 -19.685040
vt 19.685040 19.685040
vt -19.685040 19.685040
vt -19.685040 -19.685040
vt 19.685040 19.685040
vt -19.685040 19.685040
vt -19.685040 -19.685040
vt 19.685040 -19.685040
vt -19.685040 -19.685040
vt 19.685040 19.685040
vt -19.685040 19.685040
vt -19.685040 -19.685040
vt 19.685040 19.685040
vt -19.685040 19.685040
vt -19.685040 -19.685040
vt 19.685040 19.685040
vt -19.685040 19.685040
vt 0.000000 0.000000
vt 0.000000 0.000000
vt 0.000000 0.000000
vt 0.000000 0.000000
vt -19.685040 -19.685040
vt 19.685040 -19.685040
vt 19.685040 0.000003
vt 19.685040 -19.685040
vt -19.685040 19.685040
vt 19.685040 0.000001
vt 19.685040 19.685040
vt 19.685040 0.000001
vt 19.685040 19.685040
vt -19.685040 19.685040
vt 19.685040 0.000001
vt 19.685040 19.685040
vt 19.685040 0.000001
vt 19.685040 0.000001
vt 19.685040 0.000001
vt 19.685040 19.685040
vt -19.685040 -19.685040
vt 19.685040 19.685040
vt -19.685040 -19.685040
vt 19.685040 19.685040
vt -19.685040 19.685040
vt -19.685040 -19.685040
vt 19.685040 19.685040
vt -19.685040 19.685040
vt 0.000000 0.000000
vt -19.685040 -19.685040
vt 19.685040 -19.685040
vt -19.685040 -19.685040
vt 19.685040 19.685040
vt -19.685040 19.685040
vt -19.685040 -19.685040
vt 19.685040 19.685040
vt -19.685040 19.685040
vt -19.685040 -19.685040
vt 19.685040 19.685040
vt -19.685040 19.685040
vt 0.000000 0.000000
vt -19.685040 -19.685040
vt 19.685040 -19.685040
vt -19.685040 -19.685040
vt 19.685040 19.685040
vt -19.685040 19.685040
vt -19.685040 -19.685040
vt 19.685040 19.685040
vt -19.685040 19.685040
vt -19.685040 -19.685040
vt 19.685040 19.685040
vt -19.685040 19.685040
vt 0.000000 0.000000
vt -19.685040 -19.685040
vt 19.685040 -19.685040
vt -19.685040 -19.685040
vt 19.685040 19.685040
vt -19.685040 -19.685040
vt -19.685040 19.685040
vt 19.685040 19.685040
vt -19.685040 19.685040
vt 0.000000 0.000000
vt 0.000000 0.000000
vt -19.685040 -19.685040
vt 19.685040 -19.685040
vn 1.0000 -0.0000 0.0000
vn 0.0000 0.8660 -0.5000
vn 0.0000 0.7071 -0.7071
vn 0.0000 0.2588 -0.9659
vn 0.0000 0.1305 -0.9914
vn 0.0000 0.9914 -0.1305
vn 0.0000 0.9659 -0.2588
vn -1.0000 0.0000 0.0000
vn 0.0000 0.5000 -0.8660
vn -0.0000 -1.0000 0.0000
vn 0.0000 0.0000 1.0000
vn -0.0000 -0.9914 -0.1305
vn -0.0000 -0.9659 -0.2588
vn -0.0000 -0.8660 -0.5000
vn -0.0000 -0.7071 -0.7071
vn -0.0000 -0.5000 -0.8660
vn -0.0000 -0.2588 -0.9659
vn 0.0000 1.0000 0.0000
vn 0.0000 -0.1305 -0.9914
vn 0.0000 0.8944 0.4472
vn -0.0000 0.0000 -1.0000
vn -0.0000 -0.8944 0.4472
usemtl color14
s 1
f 1/1/1 2/2/1 3/3/1
f 2/2/1 1/1/1 4/4/1
f 4/4/1 1/1/1 5/5/1
f 4/4/1 5/5/1 6/6/1
f 4/4/1 6/6/1 7/7/1
f 4/4/1 7/7/1 8/8/1
f 9/9/2 6/10/3 10/11/3
f 6/12/3 9/13/2 7/14/2
f 1/15/4 11/16/5 12/17/4
f 11/18/5 1/19/4 3/20/5
f 13/21/6 8/22/7 14/23/7
f 8/24/7 13/25/6 4/26/6
f 15/27/8 12/28/8 11/29/8
f 12/30/8 15/31/8 13/32/8
f 12/30/8 13/25/8 16/33/8
f 16/34/8 13/25/8 10/11/8
f 10/35/8 13/25/8 9/36/8
f 9/9/8 13/25/8 14/23/8
f 6/12/3 16/37/9 10/11/3
f 16/34/9 6/10/3 5/38/9
f 2/39/10 11/16/10 3/20/10
f 11/18/10 2/40/10 15/41/10
f 2/39/11 13/25/11 15/41/11
f 13/21/11 2/40/11 4/26/11
f 5/42/9 12/28/4 16/33/9
f 12/30/4 5/43/9 1/44/4
f 14/45/7 7/7/2 9/36/2
f 7/46/2 14/47/7 8/8/7
f 17/48/12 18/49/13 19/50/13
f 19/50/13 20/51/14 21/52/14
f 21/52/14 22/53/15 23/54/15
f 22/53/15 24/55/16 23/54/15
f 22/53/15 21/52/14 20/51/14
f 20/51/14 19/50/13 18/49/13
f 18/49/13 17/48/12 25/56/12
f 26/57/17 27/58/16 28/59/17
f 17/48/11 29/60/11 25/56/11
f 29/60/11 17/48/11 30/61/11
f 29/60/18 31/62/18 32/63/18
f 31/62/18 29/60/18 30/61/18
f 29/60/8 18/49/8 25/56/8
f 18/49/8 29/60/8 20/51/8
f 20/51/8 29/60/8 22/53/8
f 22/53/8 29/60/8 27/58/8
f 27/58/8 29/60/8 28/59/8
f 28/59/8 29/60/8 32/63/8
f 31/64/19 28/65/17 32/66/19
f 28/67/17 31/68/19 26/69/17
f 27/58/16 26/57/17 24/55/16
f 24/55/16 22/53/15 27/58/16
f 19/70/1 30/71/1 17/72/1
f 30/71/1 19/70/1 21/73/1
f 30/71/1 21/73/1 23/74/1
f 30/71/1 23/74/1 24/75/1
f 30/71/1 24/75/1 26/76/1
f 30/71/1 26/76/1 31/77/1
f 33/78/11 34/79/11 35/80/11
f 34/79/11 33/78/11 36/81/11
f 35/80/8 37/82/8 38/83/8
f 37/82/8 35/80/8 34/79/8
f 33/78/10 38/83/10 39/84/10
f 38/83/10 33/78/10 35/80/10
f 34/79/20 40/85/20 37/82/20
f 40/85/20 34/79/20 36/81/20
f 40/86/21 38/87/21 37/88/21
f 38/89/21 40/90/21 39/91/21
f 40/90/1 33/92/1 39/93/1
f 33/92/1 40/90/1 36/94/1
f 41/95/11 42/96/11 43/97/11
f 42/96/11 41/95/11 44/98/11
f 42/96/18 45/99/18 46/100/18
f 45/99/18 42/96/18 44/98/18
f 41/95/22 47/101/22 48/102/22
f 47/101/22 41/95/22 43/97/22
f 45/99/21 47/101/21 46/100/21
f 47/101/21 45/99/21 48/102/21
f 43/103/8 46/104/8 47/105/8
f 46/106/8 43/107/8 42/108/8
f 45/109/1 41/110/1 48/111/1
f 41/110/1 45/109/1 44/112/1
f 36/81/21 35/80/21 34/79/21
f 35/80/21 36/81/21 33/78/21
f 49/113/10 35/80/10 33/78/10
f 35/80/10 49/113/10 50/114/10
f 34/79/8 35/80/8 50/114/8
f 50/114/20 36/81/20 34/79/20
f 36/81/20 50/114/20 49/113/20
f 36/115/1 49/116/1 33/117/1
f 51/118/1 41/119/1 44/120/1
f 44/112/21 43/121/21 42/122/21
f 43/123/21 44/124/21 41/125/21
f 52/126/8 42/127/8 43/107/8
f 51/118/22 43/121/22 41/125/22
f 43/123/22 51/128/22 52/129/22
f 52/126/18 44/124/18 42/122/18
f 44/112/18 52/130/18 51/131/18
f 53/132/11 54/133/11 55/134/11
f 54/133/11 53/132/11 56/135/11
f 55/134/8 50/114/8 57/136/8
f 50/114/8 55/134/8 54/133/8
f 53/132/10 57/136/10 58/137/10
f 57/136/10 53/132/10 55/134/10
f 54/133/20 49/113/20 50/114/20
f 49/113/20 54/133/20 56/135/20
f 49/116/21 57/138/21 50/139/21
f 57/140/21 49/141/21 58/142/21
f 49/141/1 53/143/1 58/144/1
f 53/143/1 49/141/1 56/145/1
f 59/146/11 60/147/11 61/148/11
f 60/147/11 59/146/11 62/149/11
f 60/147/18 63/150/18 64/151/18
f 63/150/18 60/147/18 62/149/18
f 59/146/22 52/129/22 51/152/22
f 52/153/22 59/146/22 61/148/22
f 63/150/21 52/153/21 64/151/21
f 52/153/21 63/150/21 51/152/21
f 61/154/8 64/155/8 52/126/8
f 64/156/8 61/157/8 60/158/8
f 63/159/1 59/160/1 51/161/1
f 59/160/1 63/159/1 62/162/1
f 56/135/21 55/134/21 54/133/21
f 55/134/21 56/135/21 53/132/21
f 65/163/10 55/134/10 53/132/10
f 55/134/10 65/163/10 66/164/10
f 54/133/8 55/134/8 66/164/8
f 66/164/20 56/135/20 54/133/20
f 56/135/20 66/164/20 65/163/20
f 56/165/1 65/166/1 53/167/1
f 67/168/1 59/169/1 62/170/1
f 62/162/21 61/171/21 60/172/21
f 61/173/21 62/174/21 59/175/21
f 68/176/8 60/177/8 61/157/8
f 67/168/22 61/171/22 59/175/22
f 61/173/22 67/178/22 68/179/22
f 68/176/18 62/174/18 60/172/18
f 62/162/18 68/180/18 67/181/18
f 69/182/11 70/183/11 71/184/11
f 70/183/11 69/182/11 72/185/11
f 71/184/8 66/164/8 73/186/8
f 66/164/8 71/184/8 70/183/8
f 69/182/10 73/186/10 74/187/10
f 73/186/10 69/182/10 71/184/10
f 70/183/20 65/163/20 66/164/20
f 65/163/20 70/183/20 72/185/20
f 65/166/21 73/188/21 66/189/21
f 73/190/21 65/191/21 74/192/21
f 65/191/1 69/193/1 74/194/1
f 69/193/1 65/191/1 72/195/1
f 75/196/11 76/197/11 77/198/11
f 76/197/11 75/196/11 78/199/11
f 76/197/18 79/200/18 80/201/18
f 79/200/18 76/197/18 78/199/18
f 75/196/22 68/179/22 67/202/22
f 68/203/22 75/196/22 77/198/22
f 79/200/21 68/203/21 80/201/21
f 68/203/21 79/200/21 67/202/21
f 77/204/8 80/205/8 68/176/8
f 80/206/8 77/207/8 76/208/8
f 79/209/1 75/210/1 67/211/1
f 75/210/1 79/209/1 78/212/1
f 81/213/11 82/214/11 83/215/11
f 82/214/11 81/213/11 84/216/11
f 83/215/8 85/217/8 86/218/8
f 85/217/8 83/215/8 82/214/8
f 81/213/10 86/218/10 87/219/10
f 86/218/10 81/213/10 83/215/10
f 82/214/20 88/220/20 85/217/20
f 88/220/20 82/214/20 84/216/20
f 88/221/21 86/222/21 85/223/21
f 86/224/21 88/225/21 87/226/21
f 88/225/1 81/227/1 87/228/1
f 81/227/1 88/225/1 84/229/1
f 89/230/11 83/215/11 90/231/11
f 83/215/11 89/230/11 81/213/11
f 83/215/18 87/219/18 86/218/18
f 87/219/18 83/215/18 81/213/18
f 89/230/22 91/232/22 92/233/22
f 91/232/22 89/230/22 90/231/22
f 87/219/21 91/232/21 86/218/21
f 91/232/21 87/226/21 92/233/21
f 90/234/8 86/222/8 91/235/8
f 86/236/8 90/237/8 83/238/8
f 87/239/1 89/240/1 92/241/1
f 89/240/1 87/239/1 81/242/1
f 84/216/21 83/215/21 82/214/21
f 83/215/21 84/216/21 81/213/21
f 93/243/10 83/215/10 81/213/10
f 83/215/10 93/243/10 94/244/10
f 82/214/8 83/215/8 94/244/8
f 94/244/20 84/216/20 82/214/20
f 84/216/20 94/244/20 93/243/20
f 84/245/1 93/246/1 81/247/1
f 93/248/1 95/249/1 81/250/1
f 81/242/21 96/251/21 83/215/21
f 96/252/21 81/253/21 95/254/21
f 94/255/8 83/256/8 90/237/8
f 93/248/22 96/251/22 95/254/22
f 96/252/22 93/257/22 94/258/22
f 94/255/18 81/253/18 83/259/18
f 81/242/18 94/260/18 93/261/18
f 97/262/21 98/263/21 99/264/21
f 98/265/21 97/266/21 100/267/21
f 101/268/18 97/266/18 99/264/18
f 97/262/18 101/269/18 102/270/18
f 103/271/10 98/272/10 100/273/10
f 98/272/10 103/271/10 104/274/10
f 103/271/11 101/275/11 104/274/11
f 101/275/11 103/271/11 102/276/11
f 101/275/8 98/272/8 104/274/8
f 98/272/8 101/275/8 99/277/8
f 97/266/1 103/278/1 100/279/1
f 103/278/1 97/266/1 102/270/1
f 105/280/21 106/281/21 107/282/21
f 106/283/21 105/284/21 108/285/21
f 109/286/18 105/284/18 107/282/18
f 105/280/18 109/287/18 110/288/18
f 111/289/10 106/290/10 108/291/10
f 106/290/10 111/289/10 112/292/10
f 111/289/11 109/293/11 112/292/11
f 109/293/11 111/289/11 110/294/11
f 109/293/8 106/290/8 112/292/8
f 106/290/8 109/293/8 107/295/8
f 105/284/1 111/296/1 108/297/1
f 111/296/1 105/284/1 110/288/1
f 113/298/21 114/299/21 115/300/21
f 114/301/21 113/302/21 116/303/21
f 37/304/18 113/302/18 115/300/18
f 113/298/18 37/305/18 40/306/18
f 48/102/10 114/307/10 116/308/10
f 114/307/10 48/102/10 47/101/10
f 48/102/11 37/82/11 47/101/11
f 37/82/11 48/102/11 40/85/11
f 37/82/8 114/307/8 47/105/8
f 114/307/8 37/82/8 115/309/8
f 113/302/1 48/310/1 116/311/1
f 48/310/1 113/302/1 40/306/1
f 3/312/21 32/66/21 11/18/21
f 32/313/21 3/314/21 31/64/21
f 15/315/18 3/314/18 11/18/18
f 3/312/18 15/316/18 2/39/18
f 30/61/10 32/63/10 31/62/10
f 32/63/10 30/61/10 29/60/10
f 30/61/11 15/317/11 29/60/11
f 15/317/11 30/61/11 2/39/11
f 15/317/8 32/63/8 29/60/8
f 32/63/8 15/317/8 11/29/8
f 3/314/1 30/318/1 31/319/1
f 30/318/1 3/314/1 2/39/1
f 39/320/21 46/104/21 38/321/21
f 46/322/21 39/323/21 45/324/21
f 50/325/18 39/323/18 38/321/18
f 39/320/18 50/326/18 49/327/18
f 51/152/10 46/100/10 45/99/10
f 46/100/10 51/152/10 52/153/10
f 51/152/11 50/114/11 52/153/11
f 50/114/11 51/152/11 49/113/11
f 50/114/8 46/100/8 52/126/8
f 46/100/8 50/114/8 38/83/8
f 39/323/1 51/328/1 45/329/1
f 51/328/1 39/323/1 49/327/1
f 58/330/21 64/155/21 57/331/21
f 64/332/21 58/333/21 63/334/21
f 66/335/18 58/333/18 57/331/18
f 58/330/18 66/336/18 65/337/18
f 67/202/10 64/151/10 63/150/10
f 64/151/10 67/202/10 68/203/10
f 67/202/11 66/164/11 68/203/11
f 66/164/11 67/202/11 65/163/11
f 66/164/8 64/151/8 68/176/8
f 64/151/8 66/164/8 57/136/8
f 58/333/1 67/338/1 63/339/1
f 67/338/1 58/333/1 65/337/1
f 74/340/21 117/341/21 73/342/21
f 117/343/21 74/344/21 118/345/21
f 71/346/18 74/344/18 73/342/18
f 74/340/18 71/347/18 69/348/18
f 119/349/10 117/350/10 118/351/10
f 117/350/10 119/349/10 120/352/10
f 78/199/11 71/184/11 76/197/11
f 71/184/11 78/199/11 69/182/11
f 71/184/8 117/350/8 76/208/8
f 117/350/8 71/184/8 73/186/8
f 74/344/1 119/353/1 118/354/1
f 119/353/1 74/344/1 69/348/1
usemtl color12
f 72/185/21 71/184/21 70/183/21
f 71/184/21 72/185/21 69/182/21
f 88/220/10 71/184/10 69/182/10
f 71/184/10 88/220/10 85/217/10
f 70/183/8 71/184/8 85/217/8
f 85/217/20 72/185/20 70/183/20
f 72/185/20 85/217/20 88/220/20
f 72/355/1 88/221/1 69/356/1
f 92/357/1 121/358/1 78/359/1
f 78/212/21 122/360/21 76/361/21
f 122/362/21 78/363/21 121/364/21
f 91/235/8 76/365/8 77/207/8
f 92/357/22 122/360/22 121/364/22
f 122/362/22 92/366/22 91/232/22
f 91/235/18 78/363/18 76/361/18
f 78/212/18 91/367/18 92/368/18
f 4/369/21 25/370/21 13/21/21
f 25/371/21 4/372/21 17/373/21
f 99/374/18 4/372/18 13/21/18
f 4/369/18 99/375/18 97/376/18
f 100/273/10 25/56/10 17/48/10
f 25/56/10 100/273/10 98/272/10
f 100/273/11 99/277/11 98/272/11
f 99/277/11 100/273/11 97/377/11
f 99/277/8 25/56/8 98/272/8
f 25/56/8 99/277/8 13/32/8
f 4/372/1 100/378/1 17/379/1
f 100/378/1 4/372/1 97/376/1
f 102/380/21 104/381/21 101/382/21
f 104/383/21 102/384/21 103/385/21
f 107/386/18 102/384/18 101/382/18
f 102/380/18 107/387/18 105/388/18
f 108/291/10 104/274/10 103/271/10
f 104/274/10 108/291/10 106/290/10
f 108/291/11 107/295/11 106/290/11
f 107/295/11 108/291/11 105/389/11
f 107/295/8 104/274/8 106/290/8
f 104/274/8 107/295/8 101/275/8
f 102/384/1 108/390/1 103/391/1
f 108/390/1 102/384/1 105/388/1
f 110/392/21 112/393/21 109/394/21
f 112/395/21 110/396/21 111/397/21
f 115/398/18 110/396/18 109/394/18
f 110/392/18 115/399/18 113/400/18
f 116/308/10 112/292/10 111/289/10
f 112/292/10 116/308/10 114/307/10
f 116/308/11 115/309/11 114/307/11
f 115/309/11 116/308/11 113/401/11
f 115/309/8 112/292/8 114/307/8
f 112/292/8 115/309/8 109/293/8
f 110/396/1 116/402/1 111/403/1
f 116/402/1 110/396/1 113/400/1
f 69/193/21 76/361/21 71/184/21
f 120/404/21 69/405/21 78/212/21
f 85/406/18 69/405/18 71/407/18
f 69/193/18 85/408/18 88/409/18
f 123/410/10 120/352/10 119/349/10
f 120/352/10 123/410/10 124/411/10
f 123/410/11 85/217/11 124/411/11
f 85/217/11 123/410/11 88/220/11
f 85/217/8 120/352/8 91/235/8
f 120/352/8 85/217/8 71/184/8
f 69/405/1 123/412/1 119/413/1
f 123/412/1 69/405/1 88/409/1
